<svg width="108" height="28" viewBox="0 0 108 28" fill="none" xmlns="http://www.w3.org/2000/svg">
<path d="M41.3075 21V7.18182H47.0696C48.1042 7.18182 48.9701 7.32801 49.6673 7.62038C50.369 7.91276 50.8952 8.32209 51.2461 8.84837C51.6014 9.37464 51.7791 9.98414 51.7791 10.6768C51.7791 11.2031 51.6689 11.6732 51.4485 12.087C51.2281 12.4963 50.9245 12.8359 50.5376 13.1058C50.1508 13.3757 49.7032 13.5646 49.195 13.6726V13.8075C49.7527 13.8345 50.2678 13.9852 50.7401 14.2596C51.2169 14.534 51.5992 14.9163 51.8871 15.4066C52.175 15.8924 52.3189 16.4682 52.3189 17.1339C52.3189 17.8761 52.13 18.5395 51.7521 19.1243C51.3743 19.7045 50.8278 20.1634 50.1126 20.5007C49.3974 20.8336 48.5292 21 47.5082 21H41.3075ZM44.6474 18.3079H46.712C47.4362 18.3079 47.9692 18.1707 48.3111 17.8963C48.6574 17.6219 48.8306 17.2396 48.8306 16.7493C48.8306 16.3939 48.7474 16.0881 48.581 15.8317C48.4145 15.5708 48.1784 15.3706 47.8725 15.2312C47.5666 15.0872 47.2 15.0153 46.7727 15.0153H44.6474V18.3079ZM44.6474 12.8629H46.4961C46.8604 12.8629 47.1843 12.8022 47.4677 12.6808C47.7511 12.5593 47.9715 12.3839 48.1289 12.1545C48.2908 11.9251 48.3718 11.6484 48.3718 11.3246C48.3718 10.8613 48.2076 10.4969 47.8793 10.2315C47.5509 9.96615 47.1078 9.83345 46.5501 9.83345H44.6474V12.8629ZM53.9247 21V10.6364H57.2241V21H53.9247ZM55.5778 9.42862C55.1145 9.42862 54.7164 9.27569 54.3835 8.96982C54.0507 8.65945 53.8842 8.2861 53.8842 7.84979C53.8842 7.41797 54.0507 7.04912 54.3835 6.74325C54.7164 6.43288 55.1145 6.2777 55.5778 6.2777C56.0456 6.2777 56.4437 6.43288 56.772 6.74325C57.1049 7.04912 57.2713 7.41797 57.2713 7.84979C57.2713 8.2861 57.1049 8.65945 56.772 8.96982C56.4437 9.27569 56.0456 9.42862 55.5778 9.42862ZM59.3241 7.18182H62.6235V17.7614C62.628 18.0312 62.6887 18.2314 62.8057 18.3619C62.9226 18.4878 63.107 18.5508 63.3589 18.5508C63.4894 18.5463 63.5928 18.5395 63.6693 18.5305C63.7458 18.517 63.8087 18.5013 63.8582 18.4833L64.3575 20.8111C64.2046 20.8606 64.0202 20.91 63.8042 20.9595C63.5928 21.009 63.287 21.0427 62.8866 21.0607C61.6676 21.1147 60.7703 20.9078 60.1945 20.44C59.6188 19.9677 59.3286 19.1963 59.3241 18.1257V7.18182ZM65.5956 7.18182H68.895V17.7614C68.8995 18.0312 68.9602 18.2314 69.0771 18.3619C69.1941 18.4878 69.3785 18.5508 69.6304 18.5508C69.7609 18.5463 69.8643 18.5395 69.9408 18.5305C70.0173 18.517 70.0802 18.5013 70.1297 18.4833L70.629 20.8111C70.4761 20.8606 70.2916 20.91 70.0757 20.9595C69.8643 21.009 69.5584 21.0427 69.1581 21.0607C67.9391 21.1147 67.0418 20.9078 66.466 20.44C65.8902 19.9677 65.6001 19.1963 65.5956 18.1257V7.18182ZM71.5888 21V10.6364H74.8881V21H71.5888ZM73.2418 9.42862C72.7785 9.42862 72.3804 9.27569 72.0476 8.96982C71.7147 8.65945 71.5483 8.2861 71.5483 7.84979C71.5483 7.41797 71.7147 7.04912 72.0476 6.74325C72.3804 6.43288 72.7785 6.2777 73.2418 6.2777C73.7096 6.2777 74.1077 6.43288 74.4361 6.74325C74.7689 7.04912 74.9354 7.41797 74.9354 7.84979C74.9354 8.2861 74.7689 8.65945 74.4361 8.96982C74.1077 9.27569 73.7096 9.42862 73.2418 9.42862ZM82.8785 10.6364V13.0653H76.2123V10.6364H82.8785ZM77.6022 21V10.1101C77.6022 9.30942 77.7529 8.64595 78.0542 8.11967C78.3556 7.5889 78.7739 7.19306 79.3092 6.93217C79.8445 6.66678 80.463 6.53409 81.1647 6.53409C81.6235 6.53409 82.0553 6.57008 82.4601 6.64205C82.8695 6.70952 83.1731 6.77024 83.371 6.82422L82.8447 9.2397C82.7233 9.19922 82.5748 9.16548 82.3994 9.13849C82.2285 9.1115 82.0666 9.09801 81.9136 9.09801C81.5268 9.09801 81.2614 9.18347 81.1175 9.3544C80.9735 9.52533 80.9015 9.75923 80.9015 10.0561V21H77.6022ZM86.4831 24.8864C86.0873 24.8864 85.714 24.8549 85.3631 24.7919C85.0123 24.7334 84.7109 24.6547 84.459 24.5558L85.1877 22.1605C85.5115 22.2685 85.8039 22.3314 86.0648 22.3494C86.3302 22.3674 86.5574 22.3247 86.7463 22.2212C86.9397 22.1223 87.0881 21.9446 87.1916 21.6882L87.3198 21.3778L83.6358 10.6364H87.0904L88.9998 18.0312H89.1078L91.0442 10.6364H94.519L90.6124 21.9918C90.4235 22.5586 90.1558 23.0579 89.8095 23.4897C89.4676 23.926 89.0246 24.2679 88.4803 24.5153C87.9405 24.7627 87.2748 24.8864 86.4831 24.8864Z" fill="black"/>
<g clip-path="url(#clip0_138_1935)">
<path d="M18.56 13.6192H32V13.728L10.9867 26.7824L21.44 18.2971L18.56 13.6192ZM10.6667 1V27L0 18.2971L10.6667 1Z" fill="#8C30F5"/>
</g>
<defs>
<clipPath id="clip0_138_1935">
<rect width="32" height="26" fill="white" transform="translate(0 1)"/>
</clipPath>
</defs>
</svg>
