<svg width="943" height="122" viewBox="0 0 943 122" fill="none" xmlns="http://www.w3.org/2000/svg">
<path d="M183.4 97V27H196.4V97H183.4ZM215.334 97V27H226.034L269.934 80.9H264.634V27H277.534V97H266.834L222.934 43.1H228.234V97H215.334ZM316.502 97L285.902 27H300.002L327.302 90.3H319.202L346.802 27H359.802L329.302 97H316.502ZM399.305 98C393.839 98 388.805 97.1 384.205 95.3C379.605 93.5 375.605 91 372.205 87.8C368.805 84.5333 366.172 80.7333 364.305 76.4C362.439 72 361.505 67.2 361.505 62C361.505 56.8 362.439 52.0333 364.305 47.7C366.172 43.3 368.805 39.5 372.205 36.3C375.605 33.0333 379.605 30.5 384.205 28.7C388.805 26.9 393.805 26 399.205 26C404.672 26 409.672 26.9 414.205 28.7C418.805 30.5 422.805 33.0333 426.205 36.3C429.605 39.5 432.239 43.3 434.105 47.7C435.972 52.0333 436.905 56.8 436.905 62C436.905 67.2 435.972 72 434.105 76.4C432.239 80.8 429.605 84.6 426.205 87.8C422.805 91 418.805 93.5 414.205 95.3C409.672 97.1 404.705 98 399.305 98ZM399.205 86.6C402.739 86.6 406.005 86 409.005 84.8C412.005 83.6 414.605 81.9 416.805 79.7C419.005 77.4333 420.705 74.8333 421.905 71.9C423.172 68.9 423.805 65.6 423.805 62C423.805 58.4 423.172 55.1333 421.905 52.2C420.705 49.2 419.005 46.6 416.805 44.4C414.605 42.1333 412.005 40.4 409.005 39.2C406.005 38 402.739 37.4 399.205 37.4C395.672 37.4 392.405 38 389.405 39.2C386.472 40.4 383.872 42.1333 381.605 44.4C379.405 46.6 377.672 49.2 376.405 52.2C375.205 55.1333 374.605 58.4 374.605 62C374.605 65.5333 375.205 68.8 376.405 71.8C377.672 74.8 379.405 77.4333 381.605 79.7C383.805 81.9 386.405 83.6 389.405 84.8C392.405 86 395.672 86.6 399.205 86.6ZM450.685 97V27H463.685V97H450.685ZM515.019 98C509.685 98 504.719 97.1333 500.119 95.4C495.585 93.6 491.619 91.1 488.219 87.9C484.885 84.6333 482.285 80.8 480.419 76.4C478.552 72 477.619 67.2 477.619 62C477.619 56.8 478.552 52 480.419 47.6C482.285 43.2 484.919 39.4 488.319 36.2C491.719 32.9333 495.685 30.4333 500.219 28.7C504.752 26.9 509.719 26 515.119 26C520.852 26 526.085 27 530.819 29C535.552 30.9333 539.552 33.8333 542.819 37.7L534.419 45.6C531.885 42.8667 529.052 40.8333 525.919 39.5C522.785 38.1 519.385 37.4 515.719 37.4C512.052 37.4 508.685 38 505.619 39.2C502.619 40.4 499.985 42.1 497.719 44.3C495.519 46.5 493.785 49.1 492.519 52.1C491.319 55.1 490.719 58.4 490.719 62C490.719 65.6 491.319 68.9 492.519 71.9C493.785 74.9 495.519 77.5 497.719 79.7C499.985 81.9 502.619 83.6 505.619 84.8C508.685 86 512.052 86.6 515.719 86.6C519.385 86.6 522.785 85.9333 525.919 84.6C529.052 83.2 531.885 81.1 534.419 78.3L542.819 86.3C539.552 90.1 535.552 93 530.819 95C526.085 97 520.819 98 515.019 98ZM567.275 56.1H602.075V66.8H567.275V56.1ZM568.275 86.1H607.775V97H555.275V27H606.375V37.9H568.275V86.1ZM615.879 97V88.3L643.679 61.9C646.012 59.7 647.746 57.7667 648.879 56.1C650.012 54.4333 650.746 52.9 651.079 51.5C651.479 50.0333 651.679 48.6667 651.679 47.4C651.679 44.2 650.579 41.7333 648.379 40C646.179 38.2 642.946 37.3 638.679 37.3C635.279 37.3 632.179 37.9 629.379 39.1C626.646 40.3 624.279 42.1333 622.279 44.6L613.179 37.6C615.912 33.9333 619.579 31.1 624.179 29.1C628.846 27.0333 634.046 26 639.779 26C644.846 26 649.246 26.8333 652.979 28.5C656.779 30.1 659.679 32.4 661.679 35.4C663.746 38.4 664.779 41.9667 664.779 46.1C664.779 48.3667 664.479 50.6333 663.879 52.9C663.279 55.1 662.146 57.4333 660.479 59.9C658.812 62.3667 656.379 65.1333 653.179 68.2L629.279 90.9L626.579 86H667.479V97H615.879ZM691.982 56.1H726.782V66.8H691.982V56.1ZM692.982 86.1H732.482V97H679.982V27H731.082V37.9H692.982V86.1ZM737.074 97L768.574 27H781.374L812.974 97H799.374L772.274 33.9H777.474L750.474 97H737.074ZM751.574 80.8L755.074 70.6H792.874L796.374 80.8H751.574ZM843.577 98C838.11 98 832.877 97.2333 827.877 95.7C822.877 94.1 818.91 92.0667 815.977 89.6L820.477 79.5C823.277 81.7 826.743 83.5333 830.877 85C835.01 86.4667 839.243 87.2 843.577 87.2C847.243 87.2 850.21 86.8 852.477 86C854.743 85.2 856.41 84.1333 857.477 82.8C858.543 81.4 859.077 79.8333 859.077 78.1C859.077 75.9667 858.31 74.2667 856.777 73C855.243 71.6667 853.243 70.6333 850.777 69.9C848.377 69.1 845.677 68.3667 842.677 67.7C839.743 67.0333 836.777 66.2667 833.777 65.4C830.843 64.4667 828.143 63.3 825.677 61.9C823.277 60.4333 821.31 58.5 819.777 56.1C818.243 53.7 817.477 50.6333 817.477 46.9C817.477 43.1 818.477 39.6333 820.477 36.5C822.543 33.3 825.643 30.7667 829.777 28.9C833.977 26.9667 839.277 26 845.677 26C849.877 26 854.043 26.5333 858.177 27.6C862.31 28.6667 865.91 30.2 868.977 32.2L864.877 42.3C861.743 40.4333 858.51 39.0667 855.177 38.2C851.843 37.2667 848.643 36.8 845.577 36.8C841.977 36.8 839.043 37.2333 836.777 38.1C834.577 38.9667 832.943 40.1 831.877 41.5C830.877 42.9 830.377 44.5 830.377 46.3C830.377 48.4333 831.11 50.1667 832.577 51.5C834.11 52.7667 836.077 53.7667 838.477 54.5C840.943 55.2333 843.677 55.9667 846.677 56.7C849.677 57.3667 852.643 58.1333 855.577 59C858.577 59.8667 861.277 61 863.677 62.4C866.143 63.8 868.11 65.7 869.577 68.1C871.11 70.5 871.877 73.5333 871.877 77.2C871.877 80.9333 870.843 84.4 868.777 87.6C866.777 90.7333 863.677 93.2667 859.477 95.2C855.277 97.0667 849.977 98 843.577 98ZM896.767 56.1H931.567V66.8H896.767V56.1ZM897.767 86.1H937.267V97H884.767V27H935.867V37.9H897.767V86.1Z" fill="#100022"/>
<g clip-path="url(#clip0_1201_624)">
<path d="M81.2 59.3598H140V59.8285L48.0667 116.063L93.8 79.5105L81.2 59.3598ZM46.6667 5V117L0 79.5105L46.6667 5Z" fill="#8C30F5"/>
</g>
<defs>
<clipPath id="clip0_1201_624">
<rect width="140" height="112" fill="white" transform="translate(0 5)"/>
</clipPath>
</defs>
</svg>
